<?xml version="1.0" encoding="UTF-8" standalone="no"?>
<svg
   xmlns:dc="http://purl.org/dc/elements/1.1/"
   xmlns:cc="http://creativecommons.org/ns#"
   xmlns:rdf="http://www.w3.org/1999/02/22-rdf-syntax-ns#"
   xmlns:svg="http://www.w3.org/2000/svg"
   xmlns="http://www.w3.org/2000/svg"
   viewBox="0 0 40.723751 39.718582"
   height="39.718582"
   width="40.723751"
   xml:space="preserve"
   version="1.1"
   id="svg3355"><metadata
     id="metadata3361"><rdf:RDF><cc:Work
         rdf:about=""><dc:format>image/svg+xml</dc:format><dc:type
           rdf:resource="http://purl.org/dc/dcmitype/StillImage" /><dc:title></dc:title></cc:Work></rdf:RDF></metadata><defs
     id="defs3359" /><g
     transform="matrix(1.25,0,0,-1.25,0,39.7186)"
     id="g3363"><path
       d="m 16.291,31.77488 c 8.995,0 16.288,-7.293 16.288,-16.29 0,-7.1969995 -4.667,-13.3019995 -11.14,-15.45699952 -0.815,-0.149 -1.112,0.354 -1.112,0.786 0,0.38600002 0.014,1.41100002 0.022,2.77000002 4.531,-0.984 5.487,2.184 5.487,2.184 0.741,1.881 1.809,2.382 1.809,2.382 1.479,1.011 -0.112,0.991 -0.112,0.991 -1.635,-0.116 -2.495,-1.679 -2.495,-1.679 -1.453,-2.489 -3.813,-1.77 -4.741,-1.354 -0.148,1.053 -0.568,1.771 -1.034,2.178 3.617,0.411 7.42,1.8089995 7.42,8.0509995 0,1.778 -0.635,3.232 -1.677,4.371 0.168,0.412 0.727,2.068 -0.159,4.311 0,0 -1.368,0.438 -4.48,-1.67 -1.299,0.361 -2.693,0.542 -4.078,0.548 -1.383,-0.006 -2.777,-0.187 -4.078,-0.548 -3.11,2.108 -4.475,1.67 -4.475,1.67 -0.889,-2.243 -0.33,-3.899 -0.162,-4.311 -1.044,-1.139 -1.675,-2.593 -1.675,-4.371 0,-6.258 3.809,-7.6349995 7.438,-8.0379995 -0.585,-0.503 -1.106,-1.497 -1.106,-3.017 0,-2.177 0.02,-3.934 0.02,-4.46800002 0,-0.436 -0.293,-0.943 -1.12,-0.784 C 4.663,2.1888805 0,8.2898805 0,15.48488 c 0,8.997 7.294,16.29 16.291,16.29"
       style="fill:#1b1817;fill-opacity:1;fill-rule:evenodd;stroke:none"
       id="path3377" /></g></svg>